# 3ds Max Wavefront OBJ Exporter v0.97b - (c)2007 guruware
# File Created: 22.01.2017 00:14:39

mtllib door and frame green door 1.mtl

#
# object Door_frame
#

v  49.6749 -91.7777 -5.2307
v  46.6545 67.9022 -5.2307
v  46.6545 67.9022 11.1976
v  49.6749 -91.7777 11.1976
v  -46.5692 67.9022 -5.2307
v  -46.5692 67.9022 11.1976
v  -49.5897 -91.7703 -5.2307
v  -49.5897 -91.7703 11.1976
v  -33.1747 50.7989 0.0000
v  -33.1747 -91.7952 -0.0000
v  -36.8164 -91.8464 -5.2298
v  -36.6186 55.0189 -5.2297
v  -33.1747 -91.7952 6.8383
v  -36.8170 -91.8464 11.1985
v  -33.1747 50.7989 6.8384
v  -36.6192 55.0189 11.1986
v  34.0952 50.7989 6.8384
v  36.9016 55.1773 11.1966
v  34.0952 -91.7952 6.8383
v  36.7038 -91.6954 11.1965
v  34.0952 -91.7952 -0.0000
v  36.7044 -91.6954 -5.2318
v  34.0952 50.7989 0.0000
v  36.9023 55.1773 -5.2317
# 24 vertices

vn 0.9997 0.0234 0.0000
vn 0.0000 1.0000 0.0000
vn -0.9997 0.0234 0.0000
vn 0.8732 -0.0007 -0.4873
vn 0.0113 -0.9999 0.0000
vn 0.8310 -0.0007 0.5563
vn 0.0008 -0.8362 0.5484
vn -0.8904 0.0008 0.4552
vn 0.0309 -0.9995 0.0000
vn -0.9200 0.0008 -0.3919
vn 0.0008 -0.8775 -0.4796
vn -1.0000 0.0000 -0.0000
vn 1.0000 0.0000 -0.0000
vn 0.0000 -1.0000 -0.0000
vn 0.0001 -0.0000 -1.0000
vn -0.0048 -1.0000 -0.0000
vn -0.0001 0.0000 1.0000
vn 0.0000 0.0000 1.0000
vn -0.0001 -0.0000 1.0000
vn -0.0051 -1.0000 -0.0000
vn 0.0001 0.0000 -1.0000
vn -0.0000 -0.0000 -1.0000
# 22 vertex normals

vt 0.9505 0.0417 0.0001
vt 0.9230 0.9587 0.0001
vt 0.9230 0.9587 0.9999
vt 0.9505 0.0417 0.9999
vt 0.0770 0.9587 0.0001
vt 0.0770 0.9587 0.9999
vt 0.0495 0.0417 0.0001
vt 0.0495 0.0417 0.9999
vt 0.1985 0.8605 0.3184
vt 0.1985 0.0416 0.3184
vt 0.1655 0.0413 0.0001
vt 0.1673 0.8847 0.0001
vt 0.1985 0.0416 0.7346
vt 0.1655 0.0413 1.0000
vt 0.1985 0.8605 0.7346
vt 0.1673 0.8847 1.0000
vt 0.8091 0.8605 0.7346
vt 0.8345 0.8856 0.9999
vt 0.8091 0.0416 0.7346
vt 0.8327 0.0422 0.9999
vt 0.8091 0.0416 0.3184
vt 0.8327 0.0422 -0.0000
vt 0.8091 0.8605 0.3184
vt 0.8345 0.8856 0.0000
# 24 texture coords

g Door_frame
usemtl Material__4
s 16
f 1/1/1 2/2/1 3/3/1 4/4/1 
s 32
f 2/2/2 5/5/2 6/6/2 3/3/2 
s 64
f 5/5/3 7/7/3 8/8/3 6/6/3 
s off
f 9/9/4 10/10/4 11/11/4 12/12/4 
f 10/10/5 13/13/5 14/14/5 11/11/5 
f 13/13/6 15/15/6 16/16/6 14/14/6 
f 15/15/7 17/17/7 18/18/7 16/16/7 
f 17/17/8 19/19/8 20/20/8 18/18/8 
f 19/19/9 21/21/9 22/22/9 20/20/9 
f 21/21/10 23/23/10 24/24/10 22/22/10 
f 23/23/11 9/9/11 12/12/11 24/24/11 
s 1
f 17/17/12 23/23/12 21/21/12 19/19/12 
f 13/13/13 10/10/13 9/9/13 15/15/13 
s 2
f 15/15/14 9/9/14 23/23/14 17/17/14 
s off
f 12/12/15 11/11/15 7/7/15 5/5/15 
f 11/11/16 14/14/16 8/8/16 7/7/16 
f 14/14/17 16/16/17 6/6/17 8/8/17 
f 16/16/18 18/18/18 3/3/18 6/6/18 
f 18/18/19 20/20/19 4/4/19 3/3/19 
f 20/20/20 22/22/20 1/1/20 4/4/20 
f 22/22/21 24/24/21 2/2/21 1/1/21 
f 24/24/22 12/12/22 5/5/22 2/2/22 
# 22 polygons

#
# object Door
#

v  -33.1747 -91.7952 0.3632
v  -33.1747 50.7989 0.3633
v  34.0952 50.7989 0.3633
v  34.0952 -91.7952 0.3632
v  34.0952 50.7989 7.5230
v  -33.1747 50.7989 7.5230
v  -33.1747 -91.7952 7.5230
v  34.0952 -91.7952 7.5230
# 8 vertices

vn 0.0000 0.0000 -1.0000
vn 0.0000 -0.0000 1.0000
vn -1.0000 0.0000 -0.0000
vn 0.0000 1.0000 0.0000
vn 1.0000 0.0000 -0.0000
vn 0.0000 -1.0000 -0.0000
# 6 vertex normals

vt -0.0051 -0.0051 0.0000
vt -0.0051 1.0051 0.0000
vt 1.0051 1.0051 0.0000
vt 1.0051 -0.0051 0.0000
vt 1.0051 1.0051 1.0000
vt -0.0051 1.0051 1.0000
vt -0.0051 -0.0051 1.0000
vt 1.0051 -0.0051 1.0000
# 8 texture coords

g Door
usemtl Material__3
s 2
f 25/25/23 26/26/23 27/27/23 28/28/23 
f 29/29/24 30/30/24 31/31/24 32/32/24 
s 1
f 26/26/25 25/25/25 31/31/25 30/30/25 
s 4
f 27/27/26 26/26/26 30/30/26 29/29/26 
s 1
f 28/28/27 27/27/27 29/29/27 32/32/27 
s 4
f 25/25/28 28/28/28 32/32/28 31/31/28 
# 6 polygons

#
# object Wall_section
#

v  -45.5566 66.8923 0.3632
v  -45.5566 150.9543 0.3632
v  46.4771 150.9543 0.3632
v  46.4771 66.8923 0.3632
v  46.4771 150.9543 7.5230
v  -45.5566 150.9543 7.5230
v  -45.5566 66.8923 7.5230
v  46.4771 66.8923 7.5230
# 8 vertices

vn 0.0000 0.0000 -1.0000
vn 0.0000 -0.0000 1.0000
vn -1.0000 0.0000 -0.0000
vn 0.0000 1.0000 0.0000
vn 1.0000 0.0000 -0.0000
vn 0.0000 -1.0000 -0.0000
# 6 vertex normals

vt 0.0192 -0.2042 -0.0000
vt 0.0192 1.2042 -0.0000
vt 0.9808 1.2042 -0.0000
vt 0.9808 -0.2042 -0.0000
vt 0.9808 1.2042 1.0000
vt 0.0192 1.2042 1.0000
vt 0.0192 -0.2042 1.0000
vt 0.9808 -0.2042 1.0000
# 8 texture coords

g Wall_section
usemtl Material__2
s 2
f 33/33/29 34/34/29 35/35/29 36/36/29 
f 37/37/30 38/38/30 39/39/30 40/40/30 
s 1
f 34/34/31 33/33/31 39/39/31 38/38/31 
s 4
f 35/35/32 34/34/32 38/38/32 37/37/32 
s 1
f 36/36/33 35/35/33 37/37/33 40/40/33 
s 4
f 33/33/34 36/36/34 40/40/34 39/39/34 
# 6 polygons

