# 3ds Max Wavefront OBJ Exporter v0.97b - (c)2007 guruware
# File Created: 22.01.2017 00:26:05

mtllib red box.mtl

#
# object Box001
#

v  -25.0000 0.0000 25.0000
v  -25.0000 0.0000 -25.0000
v  25.0000 0.0000 -25.0000
v  25.0000 0.0000 25.0000
v  -25.0000 50.0000 25.0000
v  25.0000 50.0000 25.0000
v  25.0000 50.0000 -25.0000
v  -25.0000 50.0000 -25.0000
# 8 vertices

vn 0.0000 -1.0000 -0.0000
vn 0.0000 1.0000 -0.0000
vn 0.0000 0.0000 1.0000
vn 1.0000 0.0000 -0.0000
vn 0.0000 0.0000 -1.0000
vn -1.0000 0.0000 -0.0000
# 6 vertex normals

vt 0.9134 0.1298 0.0763
vt 0.9134 0.8402 0.0763
vt 0.0466 0.8402 0.0763
vt 0.0466 0.1298 0.0763
vt 0.0466 0.1298 0.9237
vt 0.9134 0.1298 0.9237
vt 0.9134 0.8402 0.9237
vt 0.0466 0.8402 0.9237
vt 0.0466 0.0740 0.1338
vt 0.9134 0.0740 0.1338
vt 0.9134 0.8960 0.1338
vt 0.0466 0.8960 0.1338
vt 0.1284 0.0740 0.9515
vt 0.8316 0.0740 0.9515
vt 0.8316 0.8960 0.9515
vt 0.1284 0.8960 0.9515
vt 0.0466 0.0740 0.8662
vt 0.9134 0.0740 0.8662
vt 0.9134 0.8960 0.8662
vt 0.0466 0.8960 0.8662
vt 0.1284 0.0740 0.0485
vt 0.8316 0.0740 0.0485
vt 0.8316 0.8960 0.0485
vt 0.1284 0.8960 0.0485
# 24 texture coords

g Box001
usemtl Material__5
s 2
f 1/1/1 2/2/1 3/3/1 4/4/1 
s 4
f 5/5/2 6/6/2 7/7/2 8/8/2 
s 8
f 1/9/3 4/10/3 6/11/3 5/12/3 
s 16
f 4/13/4 3/14/4 7/15/4 6/16/4 
s 32
f 3/17/5 2/18/5 8/19/5 7/20/5 
s 64
f 2/21/6 1/22/6 5/23/6 8/24/6 
# 6 polygons

